<svg xmlns="http://www.w3.org/2000/svg" xmlns:xlink="http://www.w3.org/1999/xlink" width="500" zoomAndPan="magnify" viewBox="0 0 375 374.999991" height="500" preserveAspectRatio="xMidYMid meet" version="1.0"><defs><g/><clipPath id="86933495f0"><path d="M 143 61.320312 L 232 61.320312 L 232 170 L 143 170 Z M 143 61.320312 " clip-rule="nonzero"/></clipPath><clipPath id="518fb81a13"><path d="M 116.832031 184 L 257.832031 184 L 257.832031 235.320312 L 116.832031 235.320312 Z M 116.832031 184 " clip-rule="nonzero"/></clipPath><clipPath id="622519d626"><path d="M 174.65625 155.511719 L 200.0625 155.511719 L 200.0625 169.394531 L 174.65625 169.394531 Z M 174.65625 155.511719 " clip-rule="nonzero"/></clipPath><clipPath id="f44304817d"><path d="M 175 166 L 200 166 L 200 187.761719 L 175 187.761719 Z M 175 166 " clip-rule="nonzero"/></clipPath></defs><rect x="-37.5" width="450" fill="#ffffff" y="-37.499999" height="449.999989" fill-opacity="1"/><rect x="-37.5" width="450" fill="#ffffff" y="-37.499999" height="449.999989" fill-opacity="1"/><g clip-path="url(#86933495f0)"><path fill="#4c4c4c" d="M 187.3125 115.898438 L 208.945312 169.28125 L 231.042969 169.28125 L 187.3125 61.320312 L 143.625 169.28125 L 165.722656 169.28125 Z M 187.3125 115.898438 " fill-opacity="1" fill-rule="nonzero"/></g><g clip-path="url(#518fb81a13)"><path fill="#4c4c4c" d="M 237.277344 184.679688 L 215.179688 184.679688 L 225.488281 210.164062 L 159.84375 184.679688 L 158.765625 186.488281 L 159.484375 184.679688 L 137.386719 184.679688 L 116.875 235.320312 L 138.972656 235.320312 L 152.238281 202.570312 L 235.511719 234.847656 L 235.691406 235.320312 L 257.789062 235.320312 Z M 237.277344 184.679688 " fill-opacity="1" fill-rule="nonzero"/></g><g fill="#85c7f2" fill-opacity="1"><g transform="translate(111.207098, 305.643216)"><g><path d="M 21.378906 0 C 21.859375 0 22.019531 -0.242188 21.941406 -0.683594 L 15.269531 -31.582031 C 15.1875 -31.984375 14.949219 -32.148438 14.585938 -32.148438 L 9 -32.148438 C 8.640625 -32.148438 8.398438 -31.984375 8.316406 -31.582031 L 1.648438 -0.683594 C 1.527344 -0.242188 1.726562 0 2.167969 0 L 6.46875 0 C 6.832031 0 7.03125 -0.199219 7.113281 -0.5625 L 8.199219 -6.429688 L 15.351562 -6.429688 L 16.476562 -0.5625 C 16.554688 -0.199219 16.757812 0 17.117188 0 Z M 14.34375 -11.089844 L 9.203125 -11.089844 L 11.773438 -25.113281 Z M 14.34375 -11.089844 "/></g></g></g><g fill="#85c7f2" fill-opacity="1"><g transform="translate(146.809169, 305.643216)"><g><path d="M 18.042969 -31.503906 C 18.042969 -31.90625 17.882812 -32.148438 17.398438 -32.148438 L 2.613281 -32.148438 C 2.25 -32.148438 2.007812 -31.90625 2.007812 -31.503906 L 2.007812 -0.644531 C 2.007812 -0.242188 2.25 0 2.613281 0 L 17.398438 0 C 17.882812 0 18.042969 -0.242188 18.042969 -0.644531 L 18.042969 -4.660156 C 18.042969 -5.101562 17.882812 -5.304688 17.398438 -5.304688 L 7.355469 -5.304688 L 7.355469 -13.421875 L 15.027344 -13.421875 C 15.429688 -13.421875 15.671875 -13.664062 15.671875 -14.105469 L 15.671875 -18.082031 C 15.671875 -18.523438 15.429688 -18.765625 15.027344 -18.765625 L 7.355469 -18.765625 L 7.355469 -26.800781 L 17.398438 -26.800781 C 17.882812 -26.800781 18.042969 -27.082031 18.042969 -27.484375 Z M 18.042969 -31.503906 "/></g></g></g><g fill="#85c7f2" fill-opacity="1"><g transform="translate(178.915515, 305.643216)"><g><path d="M 18.121094 -26.359375 C 18.121094 -30.136719 16.074219 -32.148438 12.335938 -32.148438 L 7.835938 -32.148438 C 4.058594 -32.148438 2.007812 -30.136719 2.007812 -26.359375 L 2.007812 -5.785156 C 2.007812 -2.007812 4.058594 0 7.835938 0 L 12.335938 0 C 16.074219 0 18.121094 -2.007812 18.121094 -5.785156 L 18.121094 -10.125 C 18.121094 -10.527344 17.882812 -10.769531 17.480469 -10.769531 L 13.460938 -10.769531 C 13.019531 -10.769531 12.820312 -10.527344 12.820312 -10.125 L 12.820312 -6.910156 C 12.820312 -5.828125 12.257812 -5.304688 11.210938 -5.304688 L 9.121094 -5.304688 C 8.078125 -5.304688 7.515625 -5.828125 7.515625 -6.910156 L 7.515625 -25.234375 C 7.515625 -26.28125 8.035156 -26.84375 9.121094 -26.84375 L 11.210938 -26.84375 C 12.257812 -26.84375 12.820312 -26.28125 12.820312 -25.234375 L 12.820312 -22.019531 C 12.820312 -21.617188 13.019531 -21.378906 13.460938 -21.378906 L 17.480469 -21.378906 C 17.882812 -21.378906 18.121094 -21.617188 18.121094 -22.019531 Z M 18.121094 -26.359375 "/></g></g></g><g fill="#85c7f2" fill-opacity="1"><g transform="translate(211.102213, 305.643216)"><g><path d="M 2.007812 -5.785156 C 2.007812 -2.007812 4.019531 0 7.796875 0 L 12.296875 0 C 16.074219 0 18.082031 -2.007812 18.082031 -5.785156 L 18.082031 -26.359375 C 18.082031 -30.136719 16.074219 -32.148438 12.296875 -32.148438 L 7.796875 -32.148438 C 4.019531 -32.148438 2.007812 -30.136719 2.007812 -26.359375 Z M 8.960938 -5.183594 C 7.917969 -5.183594 7.355469 -5.707031 7.355469 -6.789062 L 7.355469 -25.355469 C 7.355469 -26.398438 7.917969 -26.964844 8.960938 -26.964844 L 11.292969 -26.964844 C 12.335938 -26.964844 12.898438 -26.398438 12.898438 -25.355469 L 12.898438 -6.789062 C 12.898438 -5.707031 12.335938 -5.183594 11.292969 -5.183594 Z M 8.960938 -5.183594 "/></g></g></g><g fill="#85c7f2" fill-opacity="1"><g transform="translate(243.248738, 305.643216)"><g><path d="M 18.523438 -26.359375 C 18.523438 -30.136719 16.515625 -32.148438 12.738281 -32.148438 L 2.652344 -32.148438 C 2.25 -32.148438 2.007812 -31.90625 2.007812 -31.503906 L 2.007812 -0.644531 C 2.007812 -0.242188 2.25 0 2.652344 0 L 6.832031 0 C 7.234375 0 7.472656 -0.242188 7.472656 -0.644531 L 7.472656 -10.769531 L 10.246094 -10.769531 L 12.9375 -0.5625 C 13.019531 -0.199219 13.21875 0 13.621094 0 L 17.800781 0 C 18.242188 0 18.484375 -0.242188 18.363281 -0.722656 L 15.589844 -11.25 C 17.519531 -12.09375 18.523438 -13.863281 18.523438 -16.554688 Z M 7.472656 -16.074219 L 7.472656 -26.84375 L 11.453125 -26.84375 C 12.496094 -26.84375 13.058594 -26.28125 13.058594 -25.234375 L 13.058594 -17.679688 C 13.058594 -16.636719 12.496094 -16.074219 11.453125 -16.074219 Z M 7.472656 -16.074219 "/></g></g></g><g clip-path="url(#622519d626)"><path fill="#4c4c4c" d="M 200.0625 167.742188 C 200.0625 168.289062 199.976562 168.824219 199.808594 169.339844 C 199.519531 168.808594 199.078125 168.371094 198.519531 168.085938 C 196.453125 167.015625 194.300781 166.308594 192.128906 165.984375 C 190.4375 165.734375 188.757812 165.605469 187.132812 165.605469 C 184.230469 165.605469 181.5625 166.011719 179.195312 166.808594 C 178.484375 167.046875 177.765625 167.332031 177.066406 167.660156 C 176.894531 167.738281 176.726562 167.804688 176.5625 167.875 C 175.984375 168.109375 175.257812 168.40625 174.847656 169.125 C 174.722656 168.675781 174.65625 168.214844 174.65625 167.742188 C 174.65625 163.378906 180.230469 159.828125 187.148438 159.757812 C 186.960938 158.261719 186.144531 157.6875 183.886719 157.089844 C 183.535156 156.996094 183.289062 156.671875 183.296875 156.300781 C 183.304688 155.800781 183.75 155.433594 184.230469 155.523438 C 186.304688 155.921875 187.921875 157.632812 188.222656 159.777344 C 194.835938 160.054688 200.0625 163.515625 200.0625 167.742188 " fill-opacity="1" fill-rule="nonzero"/></g><g clip-path="url(#f44304817d)"><path fill="#4c4c4c" d="M 178.246094 172.78125 C 178.609375 175.222656 179.683594 178.839844 182.753906 182.167969 C 182.960938 182.390625 182.65625 182.722656 182.421875 182.527344 C 180.332031 180.78125 177.726562 177.640625 177.765625 172.816406 C 177.765625 172.511719 178.203125 172.476562 178.246094 172.78125 Z M 198.078125 168.972656 C 196.164062 167.988281 194.113281 167.289062 191.984375 166.972656 C 187.917969 166.367188 183.4375 166.429688 179.503906 167.753906 C 178.8125 167.988281 178.132812 168.257812 177.46875 168.566406 C 176.382812 169.070312 175.527344 169.148438 175.503906 170.449219 C 175.503906 170.503906 175.503906 170.558594 175.503906 170.613281 C 175.496094 171.316406 175.527344 172.019531 175.582031 172.71875 C 175.773438 175.011719 176.277344 177.304688 177.230469 179.398438 C 178.015625 181.132812 179.125 182.71875 180.554688 183.964844 C 181.347656 184.65625 182.234375 185.234375 183.175781 185.691406 C 183.570312 185.886719 186.386719 186.597656 186.457031 186.796875 C 186.457031 186.796875 186.753906 187.65625 187.285156 187.75 L 187.285156 187.757812 C 187.3125 187.761719 187.335938 187.761719 187.359375 187.757812 C 187.386719 187.761719 187.410156 187.761719 187.4375 187.757812 L 187.4375 187.75 C 187.964844 187.65625 188.265625 186.796875 188.265625 186.796875 C 198.257812 184.722656 199.203125 174.507812 199.21875 170.871094 C 199.21875 170.789062 199.214844 170.710938 199.207031 170.632812 C 199.128906 169.925781 198.710938 169.300781 198.078125 168.972656 " fill-opacity="1" fill-rule="nonzero"/></g></svg>