<svg xmlns="http://www.w3.org/2000/svg" xmlns:xlink="http://www.w3.org/1999/xlink" width="1600" zoomAndPan="magnify" viewBox="0 0 1200 290.999983" height="388" preserveAspectRatio="xMidYMid meet" version="1.0"><defs><g/><clipPath id="45f772373b"><path d="M 181 15.53125 L 310 15.53125 L 310 174 L 181 174 Z M 181 15.53125 " clip-rule="nonzero"/></clipPath><clipPath id="bfe09d4ec2"><path d="M 142 195 L 348.953125 195 L 348.953125 269.78125 L 142 269.78125 Z M 142 195 " clip-rule="nonzero"/></clipPath></defs><g clip-path="url(#45f772373b)"><path fill="#85c7f2" d="M 245.425781 95.28125 L 277.179688 173.289062 L 309.621094 173.289062 L 245.425781 15.53125 L 181.285156 173.289062 L 213.726562 173.289062 Z M 245.425781 95.28125 " fill-opacity="1" fill-rule="nonzero"/></g><g clip-path="url(#bfe09d4ec2)"><path fill="#85c7f2" d="M 318.777344 195.789062 L 286.335938 195.789062 L 301.46875 233.023438 L 205.097656 195.789062 L 203.511719 198.429688 L 204.570312 195.789062 L 172.128906 195.789062 L 142.015625 269.78125 L 174.457031 269.78125 L 193.933594 221.929688 L 316.183594 269.09375 L 316.449219 269.78125 L 348.890625 269.78125 Z M 318.777344 195.789062 " fill-opacity="1" fill-rule="nonzero"/></g><g fill="#4c4c4c" fill-opacity="1"><g transform="translate(458.812069, 233.384283)"><g><path d="M 122.753906 0 C 125.523438 0 126.449219 -1.382812 125.984375 -3.921875 L 87.683594 -181.363281 C 87.222656 -183.671875 85.835938 -184.59375 83.761719 -184.59375 L 51.6875 -184.59375 C 49.609375 -184.59375 48.226562 -183.671875 47.765625 -181.363281 L 9.460938 -3.921875 C 8.769531 -1.382812 9.921875 0 12.460938 0 L 37.148438 0 C 39.226562 0 40.378906 -1.152344 40.839844 -3.230469 L 47.070312 -36.917969 L 88.144531 -36.917969 L 94.605469 -3.230469 C 95.066406 -1.152344 96.21875 0 98.296875 0 Z M 82.375 -63.683594 L 52.839844 -63.683594 L 67.609375 -144.214844 Z M 82.375 -63.683594 "/></g></g></g><g fill="#4c4c4c" fill-opacity="1"><g transform="translate(594.024839, 233.384283)"><g><path d="M 103.605469 -180.902344 C 103.605469 -183.210938 102.679688 -184.59375 99.910156 -184.59375 L 15 -184.59375 C 12.921875 -184.59375 11.539062 -183.210938 11.539062 -180.902344 L 11.539062 -3.691406 C 11.539062 -1.382812 12.921875 0 15 0 L 99.910156 0 C 102.679688 0 103.605469 -1.382812 103.605469 -3.691406 L 103.605469 -26.765625 C 103.605469 -29.304688 102.679688 -30.457031 99.910156 -30.457031 L 42.226562 -30.457031 L 42.226562 -77.070312 L 86.296875 -77.070312 C 88.605469 -77.070312 89.988281 -78.453125 89.988281 -80.992188 L 89.988281 -103.835938 C 89.988281 -106.371094 88.605469 -107.757812 86.296875 -107.757812 L 42.226562 -107.757812 L 42.226562 -153.90625 L 99.910156 -153.90625 C 102.679688 -153.90625 103.605469 -155.519531 103.605469 -157.828125 Z M 103.605469 -180.902344 "/></g></g></g><g fill="#4c4c4c" fill-opacity="1"><g transform="translate(709.163335, 233.384283)"><g><path d="M 104.066406 -151.367188 C 104.066406 -173.058594 92.296875 -184.59375 70.839844 -184.59375 L 44.996094 -184.59375 C 23.304688 -184.59375 11.539062 -173.058594 11.539062 -151.367188 L 11.539062 -33.226562 C 11.539062 -11.539062 23.304688 0 44.996094 0 L 70.839844 0 C 92.296875 0 104.066406 -11.539062 104.066406 -33.226562 L 104.066406 -58.148438 C 104.066406 -60.453125 102.679688 -61.839844 100.375 -61.839844 L 77.300781 -61.839844 C 74.761719 -61.839844 73.605469 -60.453125 73.605469 -58.148438 L 73.605469 -39.6875 C 73.605469 -33.457031 70.375 -30.457031 64.378906 -30.457031 L 52.378906 -30.457031 C 46.378906 -30.457031 43.148438 -33.457031 43.148438 -39.6875 L 43.148438 -144.90625 C 43.148438 -150.90625 46.148438 -154.136719 52.378906 -154.136719 L 64.378906 -154.136719 C 70.375 -154.136719 73.605469 -150.90625 73.605469 -144.90625 L 73.605469 -126.449219 C 73.605469 -124.140625 74.761719 -122.753906 77.300781 -122.753906 L 100.375 -122.753906 C 102.679688 -122.753906 104.066406 -124.140625 104.066406 -126.449219 Z M 104.066406 -151.367188 "/></g></g></g><g fill="#4c4c4c" fill-opacity="1"><g transform="translate(824.763303, 233.384283)"><g><path d="M 11.539062 -33.226562 C 11.539062 -11.539062 23.074219 0 44.765625 0 L 70.609375 0 C 92.296875 0 103.835938 -11.539062 103.835938 -33.226562 L 103.835938 -151.367188 C 103.835938 -173.058594 92.296875 -184.59375 70.609375 -184.59375 L 44.765625 -184.59375 C 23.074219 -184.59375 11.539062 -173.058594 11.539062 -151.367188 Z M 51.457031 -29.765625 C 45.457031 -29.765625 42.226562 -32.765625 42.226562 -38.996094 L 42.226562 -145.597656 C 42.226562 -151.597656 45.457031 -154.828125 51.457031 -154.828125 L 64.839844 -154.828125 C 70.839844 -154.828125 74.070312 -151.597656 74.070312 -145.597656 L 74.070312 -38.996094 C 74.070312 -32.765625 70.839844 -29.765625 64.839844 -29.765625 Z M 51.457031 -29.765625 "/></g></g></g><g fill="#4c4c4c" fill-opacity="1"><g transform="translate(940.132535, 233.384283)"><g><path d="M 106.371094 -151.367188 C 106.371094 -173.058594 94.835938 -184.59375 73.144531 -184.59375 L 15.230469 -184.59375 C 12.921875 -184.59375 11.539062 -183.210938 11.539062 -180.902344 L 11.539062 -3.691406 C 11.539062 -1.382812 12.921875 0 15.230469 0 L 39.226562 0 C 41.535156 0 42.917969 -1.382812 42.917969 -3.691406 L 42.917969 -61.839844 L 58.839844 -61.839844 L 74.300781 -3.230469 C 74.761719 -1.152344 75.914062 0 78.222656 0 L 102.21875 0 C 104.757812 0 106.140625 -1.382812 105.449219 -4.152344 L 89.527344 -64.609375 C 100.605469 -69.453125 106.371094 -79.605469 106.371094 -95.066406 Z M 42.917969 -92.296875 L 42.917969 -154.136719 L 65.761719 -154.136719 C 71.761719 -154.136719 74.992188 -150.90625 74.992188 -144.90625 L 74.992188 -101.527344 C 74.992188 -95.527344 71.761719 -92.296875 65.761719 -92.296875 Z M 42.917969 -92.296875 "/></g></g></g><path stroke-linecap="butt" transform="matrix(0.000000000000000046, -0.750913, 0.75, 0.000000000000000046, 401.92649, 275.466759)" fill="none" stroke-linejoin="miter" d="M 0.00255087 2.499055 L 346.585905 2.499055 " stroke="#636363" stroke-width="5" stroke-opacity="1" stroke-miterlimit="4"/></svg>