<svg xmlns="http://www.w3.org/2000/svg" xmlns:xlink="http://www.w3.org/1999/xlink" width="1600" zoomAndPan="magnify" viewBox="0 0 1200 290.999983" height="388" preserveAspectRatio="xMidYMid meet" version="1.0"><defs><g/><clipPath id="ffb9acd6cc"><path d="M 181 15.53125 L 309 15.53125 L 309 172 L 181 172 Z M 181 15.53125 " clip-rule="nonzero"/></clipPath><clipPath id="1215486ef2"><path d="M 142.914062 194 L 347.664062 194 L 347.664062 267.53125 L 142.914062 267.53125 Z M 142.914062 194 " clip-rule="nonzero"/></clipPath><clipPath id="35b5ed5e56"><path d="M 226.753906 152.09375 L 264.113281 152.09375 L 264.113281 172.117188 L 226.753906 172.117188 Z M 226.753906 152.09375 " clip-rule="nonzero"/></clipPath><clipPath id="b24d305037"><path d="M 228 168 L 263 168 L 263 198.59375 L 228 198.59375 Z M 228 168 " clip-rule="nonzero"/></clipPath></defs><g clip-path="url(#ffb9acd6cc)"><path fill="#85c7f2" d="M 245.265625 94.574219 L 276.671875 171.890625 L 308.761719 171.890625 L 245.265625 15.53125 L 181.820312 171.890625 L 213.910156 171.890625 Z M 245.265625 94.574219 " fill-opacity="1" fill-rule="nonzero"/></g><g clip-path="url(#1215486ef2)"><path fill="#85c7f2" d="M 317.816406 194.191406 L 285.726562 194.191406 L 300.699219 231.097656 L 205.375 194.191406 L 203.804688 196.808594 L 204.851562 194.191406 L 172.765625 194.191406 L 142.980469 267.53125 L 175.066406 267.53125 L 194.332031 220.105469 L 315.253906 266.851562 L 315.515625 267.53125 L 347.601562 267.53125 Z M 317.816406 194.191406 " fill-opacity="1" fill-rule="nonzero"/></g><g fill="#4c4c4c" fill-opacity="1"><g transform="translate(458.812069, 233.384283)"><g><path d="M 122.753906 0 C 125.523438 0 126.449219 -1.382812 125.984375 -3.921875 L 87.683594 -181.363281 C 87.222656 -183.671875 85.835938 -184.59375 83.761719 -184.59375 L 51.6875 -184.59375 C 49.609375 -184.59375 48.226562 -183.671875 47.765625 -181.363281 L 9.460938 -3.921875 C 8.769531 -1.382812 9.921875 0 12.460938 0 L 37.148438 0 C 39.226562 0 40.378906 -1.152344 40.839844 -3.230469 L 47.070312 -36.917969 L 88.144531 -36.917969 L 94.605469 -3.230469 C 95.066406 -1.152344 96.21875 0 98.296875 0 Z M 82.375 -63.683594 L 52.839844 -63.683594 L 67.609375 -144.214844 Z M 82.375 -63.683594 "/></g></g></g><g fill="#4c4c4c" fill-opacity="1"><g transform="translate(594.024839, 233.384283)"><g><path d="M 103.605469 -180.902344 C 103.605469 -183.210938 102.679688 -184.59375 99.910156 -184.59375 L 15 -184.59375 C 12.921875 -184.59375 11.539062 -183.210938 11.539062 -180.902344 L 11.539062 -3.691406 C 11.539062 -1.382812 12.921875 0 15 0 L 99.910156 0 C 102.679688 0 103.605469 -1.382812 103.605469 -3.691406 L 103.605469 -26.765625 C 103.605469 -29.304688 102.679688 -30.457031 99.910156 -30.457031 L 42.226562 -30.457031 L 42.226562 -77.070312 L 86.296875 -77.070312 C 88.605469 -77.070312 89.988281 -78.453125 89.988281 -80.992188 L 89.988281 -103.835938 C 89.988281 -106.371094 88.605469 -107.757812 86.296875 -107.757812 L 42.226562 -107.757812 L 42.226562 -153.90625 L 99.910156 -153.90625 C 102.679688 -153.90625 103.605469 -155.519531 103.605469 -157.828125 Z M 103.605469 -180.902344 "/></g></g></g><g fill="#4c4c4c" fill-opacity="1"><g transform="translate(709.163335, 233.384283)"><g><path d="M 104.066406 -151.367188 C 104.066406 -173.058594 92.296875 -184.59375 70.839844 -184.59375 L 44.996094 -184.59375 C 23.304688 -184.59375 11.539062 -173.058594 11.539062 -151.367188 L 11.539062 -33.226562 C 11.539062 -11.539062 23.304688 0 44.996094 0 L 70.839844 0 C 92.296875 0 104.066406 -11.539062 104.066406 -33.226562 L 104.066406 -58.148438 C 104.066406 -60.453125 102.679688 -61.839844 100.375 -61.839844 L 77.300781 -61.839844 C 74.761719 -61.839844 73.605469 -60.453125 73.605469 -58.148438 L 73.605469 -39.6875 C 73.605469 -33.457031 70.375 -30.457031 64.378906 -30.457031 L 52.378906 -30.457031 C 46.378906 -30.457031 43.148438 -33.457031 43.148438 -39.6875 L 43.148438 -144.90625 C 43.148438 -150.90625 46.148438 -154.136719 52.378906 -154.136719 L 64.378906 -154.136719 C 70.375 -154.136719 73.605469 -150.90625 73.605469 -144.90625 L 73.605469 -126.449219 C 73.605469 -124.140625 74.761719 -122.753906 77.300781 -122.753906 L 100.375 -122.753906 C 102.679688 -122.753906 104.066406 -124.140625 104.066406 -126.449219 Z M 104.066406 -151.367188 "/></g></g></g><g fill="#4c4c4c" fill-opacity="1"><g transform="translate(824.763303, 233.384283)"><g><path d="M 11.539062 -33.226562 C 11.539062 -11.539062 23.074219 0 44.765625 0 L 70.609375 0 C 92.296875 0 103.835938 -11.539062 103.835938 -33.226562 L 103.835938 -151.367188 C 103.835938 -173.058594 92.296875 -184.59375 70.609375 -184.59375 L 44.765625 -184.59375 C 23.074219 -184.59375 11.539062 -173.058594 11.539062 -151.367188 Z M 51.457031 -29.765625 C 45.457031 -29.765625 42.226562 -32.765625 42.226562 -38.996094 L 42.226562 -145.597656 C 42.226562 -151.597656 45.457031 -154.828125 51.457031 -154.828125 L 64.839844 -154.828125 C 70.839844 -154.828125 74.070312 -151.597656 74.070312 -145.597656 L 74.070312 -38.996094 C 74.070312 -32.765625 70.839844 -29.765625 64.839844 -29.765625 Z M 51.457031 -29.765625 "/></g></g></g><g fill="#4c4c4c" fill-opacity="1"><g transform="translate(940.132535, 233.384283)"><g><path d="M 106.371094 -151.367188 C 106.371094 -173.058594 94.835938 -184.59375 73.144531 -184.59375 L 15.230469 -184.59375 C 12.921875 -184.59375 11.539062 -183.210938 11.539062 -180.902344 L 11.539062 -3.691406 C 11.539062 -1.382812 12.921875 0 15.230469 0 L 39.226562 0 C 41.535156 0 42.917969 -1.382812 42.917969 -3.691406 L 42.917969 -61.839844 L 58.839844 -61.839844 L 74.300781 -3.230469 C 74.761719 -1.152344 75.914062 0 78.222656 0 L 102.21875 0 C 104.757812 0 106.140625 -1.382812 105.449219 -4.152344 L 89.527344 -64.609375 C 100.605469 -69.453125 106.371094 -79.605469 106.371094 -95.066406 Z M 42.917969 -92.296875 L 42.917969 -154.136719 L 65.761719 -154.136719 C 71.761719 -154.136719 74.992188 -150.90625 74.992188 -144.90625 L 74.992188 -101.527344 C 74.992188 -95.527344 71.761719 -92.296875 65.761719 -92.296875 Z M 42.917969 -92.296875 "/></g></g></g><path stroke-linecap="butt" transform="matrix(0.000000000000000046, -0.750913, 0.75, 0.000000000000000046, 401.92649, 275.466759)" fill="none" stroke-linejoin="miter" d="M 0.00255087 2.499055 L 346.585905 2.499055 " stroke="#636363" stroke-width="5" stroke-opacity="1" stroke-miterlimit="4"/><g clip-path="url(#35b5ed5e56)"><path fill="#85c7f2" d="M 264.113281 169.734375 C 264.113281 170.519531 263.988281 171.289062 263.742188 172.03125 C 263.316406 171.269531 262.667969 170.636719 261.847656 170.226562 C 258.804688 168.683594 255.640625 167.664062 252.445312 167.199219 C 249.960938 166.835938 247.488281 166.652344 245.101562 166.652344 C 240.835938 166.652344 236.90625 167.234375 233.429688 168.382812 C 232.378906 168.730469 231.328125 169.140625 230.296875 169.609375 C 230.046875 169.722656 229.796875 169.824219 229.554688 169.921875 C 228.703125 170.261719 227.640625 170.691406 227.035156 171.726562 C 226.851562 171.082031 226.753906 170.414062 226.753906 169.734375 C 226.753906 163.4375 234.949219 158.324219 245.125 158.21875 C 244.847656 156.066406 243.644531 155.230469 240.328125 154.375 C 239.808594 154.238281 239.449219 153.769531 239.460938 153.234375 C 239.472656 152.515625 240.128906 151.984375 240.832031 152.117188 C 243.882812 152.6875 246.261719 155.152344 246.703125 158.246094 C 256.429688 158.648438 264.113281 163.636719 264.113281 169.734375 " fill-opacity="1" fill-rule="nonzero"/></g><g clip-path="url(#b24d305037)"><path fill="#85c7f2" d="M 232.035156 176.996094 C 232.566406 180.515625 234.148438 185.730469 238.660156 190.53125 C 238.964844 190.855469 238.519531 191.332031 238.175781 191.050781 C 235.097656 188.535156 231.269531 184.003906 231.324219 177.046875 C 231.328125 176.605469 231.96875 176.558594 232.035156 176.996094 Z M 261.199219 171.507812 C 258.382812 170.085938 255.363281 169.078125 252.238281 168.625 C 246.253906 167.75 239.664062 167.839844 233.878906 169.75 C 232.863281 170.085938 231.867188 170.476562 230.890625 170.921875 C 229.292969 171.644531 228.035156 171.757812 228 173.636719 C 228 173.714844 228 173.792969 228 173.871094 C 227.988281 174.886719 228.03125 175.898438 228.117188 176.910156 C 228.398438 180.214844 229.140625 183.519531 230.539062 186.539062 C 231.695312 189.039062 233.324219 191.324219 235.425781 193.121094 C 236.59375 194.117188 237.894531 194.953125 239.28125 195.613281 C 239.863281 195.894531 244.003906 196.921875 244.105469 197.207031 C 244.105469 197.207031 244.542969 198.449219 245.324219 198.582031 L 245.324219 198.589844 C 245.363281 198.59375 245.398438 198.597656 245.4375 198.59375 C 245.472656 198.597656 245.507812 198.59375 245.546875 198.589844 L 245.546875 198.582031 C 246.328125 198.449219 246.765625 197.207031 246.765625 197.207031 C 261.457031 194.214844 262.851562 179.484375 262.875 174.242188 C 262.875 174.125 262.867188 174.011719 262.855469 173.898438 C 262.746094 172.878906 262.125 171.980469 261.199219 171.507812 " fill-opacity="1" fill-rule="nonzero"/></g></svg>